<svg id="Layer_1" data-name="Layer 1" xmlns="http://www.w3.org/2000/svg" viewBox="0 0 1500 1500"><defs><style>.cls-1{fill:#311b92;}.cls-2{fill:#fff;}</style></defs><title>FutoIn_logo</title><rect class="cls-1" width="1500" height="1500"/><circle class="cls-2" cx="750" cy="750" r="237.88"/><rect class="cls-2" x="724.23" y="146.73" width="51.44" height="1206.46" transform="translate(1499.96 0.05) rotate(90)"/><rect class="cls-2" x="724.23" y="146.76" width="51.44" height="1206.4" transform="translate(1499.95 1499.96) rotate(180)"/><rect class="cls-2" x="885.79" y="387.58" width="29.39" height="424.91" transform="translate(1112.98 1661.1) rotate(-135)"/><circle class="cls-2" cx="1353.2" cy="750" r="91.85"/><circle class="cls-2" cx="146.8" cy="750" r="91.85"/><circle class="cls-2" cx="750" cy="146.8" r="91.85"/><circle class="cls-2" cx="750" cy="1353.2" r="91.85"/><circle class="cls-2" cx="1053.04" cy="449.39" r="55.11"/><path class="cls-2" d="M1029.45,724.24h177c30.41,0,58.72-13.92,78.79-36.77,13.36-15.21,34.72-29.37,68-29.37,0,0,44,185,0,183.71-33.13-.94-54.42-14.92-67.76-29.77-20.2-22.49-48.24-36.36-78.47-36.36h-177" transform="translate(0.05 0.04)"/><path class="cls-2" d="M775.68,1029.46v177c0,30.41,13.92,58.72,36.77,78.79,15.21,13.36,29.37,34.72,29.37,68,0,0-185,44-183.71,0C659,1320,673,1298.74,687.88,1285.4c22.49-20.2,36.36-48.24,36.36-78.47v-177" transform="translate(0.05 0.04)"/><path class="cls-2" d="M470.45,775.69h-177c-30.41,0-58.72,13.92-78.79,36.77-13.36,15.21-34.72,29.37-68,29.37,0,0-44-185,0-183.71,33.13,0.94,54.42,14.92,67.76,29.77,20.2,22.49,48.24,36.36,78.47,36.36H470" transform="translate(0.05 0.04)"/><path class="cls-2" d="M724.23,470.46v-177c0-30.41-13.92-58.72-36.77-78.79-15.21-13.36-29.37-34.72-29.37-68,0,0,185-44,183.71,0-0.94,33.13-14.92,54.42-29.77,67.76-22.49,20.2-36.36,48.24-36.36,78.47V470" transform="translate(0.05 0.04)"/><path class="cls-2" d="M925,554.69l64.19-64.19a34.36,34.36,0,0,0,9.18-31.45c-2.66-12.69-2.14-30.85,14.28-47.27,0,0,98.55,58.08,79.27,76.54-18.62,17.83-37.65,18.19-50.7,15.11a34.39,34.39,0,0,0-32.35,9l-63.17,63.17" transform="translate(0.05 0.04)"/><rect class="cls-2" x="584.72" y="687.43" width="29.39" height="424.91" transform="translate(811.93 -160.25) rotate(45)"/><circle class="cls-2" cx="446.96" cy="1050.61" r="55.11"/><path class="cls-2" d="M574.85,945.24l-64.19,64.19a34.36,34.36,0,0,0-9.18,31.45c2.66,12.69,2.14,30.85-14.28,47.27,0,0-98.55-58.08-79.27-76.54,18.62-17.83,37.65-18.19,50.7-15.11a34.39,34.39,0,0,0,32.35-9l63.17-63.17" transform="translate(0.05 0.04)"/><rect class="cls-2" x="885.18" y="688.04" width="29.39" height="424.91" transform="translate(-373.13 900.09) rotate(-45)"/><circle class="cls-2" cx="1050.61" cy="1053.04" r="55.11"/><path class="cls-2" d="M945.22,925.06l64.19,64.19a34.36,34.36,0,0,0,31.45,9.18c12.69-2.66,30.85-2.14,47.27,14.28,0,0-58.08,98.55-76.54,79.27-17.83-18.62-18.19-37.65-15.11-50.7a34.39,34.39,0,0,0-9-32.35l-63.17-63.17" transform="translate(0.05 0.04)"/><rect class="cls-2" x="585.06" y="387.49" width="29.39" height="424.91" transform="translate(1448.11 600.12) rotate(135)"/><circle class="cls-2" cx="449.12" cy="447.48" r="55.11"/><path class="cls-2" d="M554.4,575.38l-64.19-64.19A34.36,34.36,0,0,0,458.77,502c-12.69,2.66-30.85,2.14-47.27-14.28,0,0,58.08-98.55,76.54-79.27,17.83,18.62,18.19,37.65,15.11,50.7a34.39,34.39,0,0,0,9,32.35l63.17,63.17" transform="translate(0.05 0.04)"/></svg>
